<svg id="b5ebc9fd-e5a2-4956-9a0b-e01e5d1f8b0b" data-name="Layer 1" xmlns="http://www.w3.org/2000/svg" viewBox="0 0 1291.56 2032.69">
<defs>
<style>
    .a87d4e0c-bbd6-4ec5-9202-20d1f4f466b0 {
        fill:#f99958;
    }
    .ae9d5853-9370-4dec-93d4-f23e82714837 {
        fill:#bee1fc;
    }
    </style>
    </defs>
    <circle class="a87d4e0c-bbd6-4ec5-9202-20d1f4f466b0" cx="866.98" cy="975.61" r="112.81"/>
    <circle class="a87d4e0c-bbd6-4ec5-9202-20d1f4f466b0" cx="402.6" cy="1398.36" r="57.47"/>
    <circle class="a87d4e0c-bbd6-4ec5-9202-20d1f4f466b0" cx="962.42" cy="1168.52" r="145.54"/>
    <circle class="a87d4e0c-bbd6-4ec5-9202-20d1f4f466b0" cx="902.55" cy="368.73" r="122.62"/>
    <circle class="a87d4e0c-bbd6-4ec5-9202-20d1f4f466b0" cx="1164.17" cy="745.04" r="118.16"/>
    <circle class="a87d4e0c-bbd6-4ec5-9202-20d1f4f466b0" cx="517.89" cy="999.5" r="62.99"/>
    <circle class="a87d4e0c-bbd6-4ec5-9202-20d1f4f466b0" cx="431.43" cy="125.9" r="86.52"/>
    <circle class="a87d4e0c-bbd6-4ec5-9202-20d1f4f466b0" cx="696.37" cy="1305.5" r="73.85"/>
    <circle class="a87d4e0c-bbd6-4ec5-9202-20d1f4f466b0" cx="747.36" cy="1738.76" r="154.56"/>
    <circle class="a87d4e0c-bbd6-4ec5-9202-20d1f4f466b0" cx="1156.41" cy="1515.68" r="59.43"/>
    <circle class="a87d4e0c-bbd6-4ec5-9202-20d1f4f466b0" cx="359.37" cy="551.75" r="84.73"/>
    <circle class="a87d4e0c-bbd6-4ec5-9202-20d1f4f466b0" cx="296.18" cy="1775.33" r="68.51"/>
    <circle class="a87d4e0c-bbd6-4ec5-9202-20d1f4f466b0" cx="622.66" cy="694.08" r="141.47"/>
    <circle class="a87d4e0c-bbd6-4ec5-9202-20d1f4f466b0" cx="980.15" cy="1893.37" r="139.33"/>
    <circle class="a87d4e0c-bbd6-4ec5-9202-20d1f4f466b0" cx="135.45" cy="1185.3" r="135.45"/>
    <circle class="a87d4e0c-bbd6-4ec5-9202-20d1f4f466b0" cx="166.48" cy="284.03" r="118.43"/>
    <circle class="a87d4e0c-bbd6-4ec5-9202-20d1f4f466b0" cx="1083.25" cy="125.4" r="98.88"/>
    <circle class="ae9d5853-9370-4dec-93d4-f23e82714837" cx="899.72" cy="79.19" r="79.19"/>
    <circle class="ae9d5853-9370-4dec-93d4-f23e82714837" cx="1122.75" cy="223.51" r="91.15"/>
    <circle class="ae9d5853-9370-4dec-93d4-f23e82714837" cx="195.07" cy="659.89" r="90.18"/>
    <circle class="ae9d5853-9370-4dec-93d4-f23e82714837" cx="877.73" cy="622.01" r="75.98"/>
    <circle class="ae9d5853-9370-4dec-93d4-f23e82714837" cx="1177.18" cy="513.26" r="93.63"/>
    <circle class="ae9d5853-9370-4dec-93d4-f23e82714837" cx="293.29" cy="1100.52" r="62.9"/>
    <circle class="ae9d5853-9370-4dec-93d4-f23e82714837" cx="363.25" cy="1762.36" r="76.67"/>
    <circle class="ae9d5853-9370-4dec-93d4-f23e82714837" cx="1083.98" cy="1777.48" r="80.29"/>
    <circle class="ae9d5853-9370-4dec-93d4-f23e82714837" cx="1050.45" cy="1426.31" r="73.31"/>
    <circle class="ae9d5853-9370-4dec-93d4-f23e82714837" cx="1215.41" cy="1605.11" r="76.15"/>
    <circle class="ae9d5853-9370-4dec-93d4-f23e82714837" cx="625.58" cy="1327.95" r="62.42"/>
    <circle class="ae9d5853-9370-4dec-93d4-f23e82714837" cx="572.91" cy="183.47" r="81.83"/>
    <circle class="ae9d5853-9370-4dec-93d4-f23e82714837" cx="638.7" cy="628.33" r="65.7"/>
    <circle class="ae9d5853-9370-4dec-93d4-f23e82714837" cx="293.58" cy="1480.8" r="90.7"/>
    <circle class="ae9d5853-9370-4dec-93d4-f23e82714837" cx="861.67" cy="1080.96" r="71.45"/>
</svg>