<svg id="b20be4e7-e69d-411d-991c-cfbd05cc0aec" data-name="Layer 1" xmlns="http://www.w3.org/2000/svg" xmlns:xlink="http://www.w3.org/1999/xlink" viewBox="0 0 1096.32 442.96">
    <defs>
        <style>
            .a1cfddc6-dbed-41ff-9fe5-d0953bbc6cff {
                fill:url(#e4939fa3-47ea-435f-a935-19544ef7f2af);
            }
            .a0ba18de-0ffd-40bd-af3c-5439ea80e2da {
                fill:url(#eb791ecb-bc3c-440e-a2e9-f9cf2aa9b04d);
            }
            .eb3bb768-824d-46a6-8aab-1d474193433b {
                fill:url(#bcddf902-856f-4bb3-ac49-44f58a1ead49);
            }
        </style>
        <linearGradient id="e4939fa3-47ea-435f-a935-19544ef7f2af" x1="25.41" y1="326.27" x2="392.38" y2="326.27" gradientUnits="userSpaceOnUse">
            <stop offset="0" stop-color="#5ca791"/><stop offset="0.24" stop-color="#579e8d"/>
            <stop offset="0.63" stop-color="#498481"/><stop offset="0.99" stop-color="#396774"/>
        </linearGradient>
        <linearGradient id="eb791ecb-bc3c-440e-a2e9-f9cf2aa9b04d" x1="28.17" y1="256.67" x2="371.1" y2="256.67" gradientTransform="matrix(1.05, 0.47, -0.6, 1.36, 106.38, -130.16)" gradientUnits="userSpaceOnUse">
            <stop offset="0" stop-color="#5ca791"/>
            <stop offset="0.21" stop-color="#53a18c"/>
            <stop offset="0.55" stop-color="#39927f"/>
            <stop offset="0.99" stop-color="#107969"/>
        </linearGradient><linearGradient id="bcddf902-856f-4bb3-ac49-44f58a1ead49" x1="29.26" y1="207.68" x2="391.41" y2="207.68" gradientUnits="userSpaceOnUse">
            <stop offset="0" stop-color="#7cb4a2"/>
            <stop offset="0.49" stop-color="#73b09d"/>
            <stop offset="0.99" stop-color="#64ab96"/>
        </linearGradient>
    </defs>
    <path class="a1cfddc6-dbed-41ff-9fe5-d0953bbc6cff" d="M375.59,478.59c31.72,38,17.17,69.09-32.33,69.09H115.41c-49.5,0-90-40.5-90-90V149.1c0-49.5,26-58.91,57.67-20.91Z" transform="translate(-25.41 -104.72)"/>
    <path class="a0ba18de-0ffd-40bd-af3c-5439ea80e2da" d="M128,445.23,376.9,297c20.9-12.44,19.08-43.28-3.14-53.18L68.65,107.9C46.44,98,22.29,117.26,27,141.12L83.24,425.27A30,30,0,0,0,128,445.23Z" transform="translate(-25.41 -104.72)"/>
    <path class="eb3bb768-824d-46a6-8aab-1d474193433b" d="M224.69,304.56l161-165.91c12.31-12.68,3.33-33.93-14.35-33.93H49.3C31.63,104.72,22.64,126,35,138.65L196,304.56A20,20,0,0,0,224.69,304.56Z" transform="translate(-25.41 -104.72)"/>
    <path d="M684.72,388.84V270.06c0-43.11-34.85-41.27-34.85-41.27H566v194h85.3C686.1,422.77,684.72,388.84,684.72,388.84ZM643.11,287.72V363.5c0,18.92-16.86,16.85-16.86,16.85H608.83V270.52s-1.38-.4,16.68-.4S643.11,287.72,643.11,287.72Z" transform="translate(-25.41 -104.72)"/>
    <path d="M836.51,228.44H718V389.1s-2.29,34,34,34h84.46V380.69H777.26s-16.84.55-16.84-16.84v-17.4h59V304.87H760.08V270.32h76.43Z" transform="translate(-25.41 -104.72)"/>
    <path d="M981.2,228.44H896.82s-33.79.34-33.75,34c0,26.64,0,42.19,0,42.19S863,340,898,339.89c27.08-.09,25.22,0,25.22,0s15.75-1,16,15.56c.2,15.27.05,8.68.05,8.68s1.11,16.5-14.94,16.8c-8.6.15-61.23,0-61.23,0v42.22h84.69s33.9,3.11,33.9-33.62V339.27S981,305,947.36,305h-25s-17.07-1-17.07-17.07c0-17.82,17.38-17.37,17.38-17.37h59Z" transform="translate(-25.41 -104.72)"/>
    <path d="M540.92,228.44H422.45V389.1s-2.29,34,34,34h84.46V380.69H481.67s-16.85.55-16.85-16.84v-17.4h59V304.87H464.49V270.32h76.43Z" transform="translate(-25.41 -104.72)"/>
    <path d="M1121.31,227.9h-84.39s-33.78.34-33.74,34c0,26.64,0,42.2,0,42.2s0,35.36,34.89,35.24c27.08-.09,25.23,0,25.23,0s15.74-1,16,15.55c.2,15.27,0,8.68,0,8.68s1.12,16.5-14.93,16.8c-8.6.16-61.23,0-61.23,0v42.22h84.69s33.89,3.11,33.89-33.62V338.73s-.64-34.26-34.26-34.26h-25s-17.06-1-17.06-17.06c0-17.83,17.38-17.38,17.38-17.38h59Z" transform="translate(-25.41 -104.72)"/>
</svg>