<svg id="bb2bf570-78ef-4fd8-93db-471a40a88a6c" data-name="Layer 1" xmlns="http://www.w3.org/2000/svg" xmlns:xlink="http://www.w3.org/1999/xlink" viewBox="0 0 1974 1128"><defs><style>.a5b99882-e2a7-4184-90ae-1ce37f29c08a{fill:#95c9fa;}.a83bde99-90c2-41cf-90c9-c3e1fdce4e7f{fill:#87aedd;}.b6a500f9-70f3-440d-80a5-c3d4cb281178{clip-path:url(#fe4d5441-b669-4c88-a5ae-0542aaa4ae6c);}.bb4aa9c4-2e07-4a99-89cc-ea4b601a4c37{fill:#c9dff4;}</style><clipPath id="fe4d5441-b669-4c88-a5ae-0542aaa4ae6c" transform="translate(0 0)"><rect class="a5b99882-e2a7-4184-90ae-1ce37f29c08a" width="1920" height="1080"/></clipPath></defs><rect class="a83bde99-90c2-41cf-90c9-c3e1fdce4e7f" width="1920" height="1080"/><g class="b6a500f9-70f3-440d-80a5-c3d4cb281178"><circle class="bb4aa9c4-2e07-4a99-89cc-ea4b601a4c37" cx="94" cy="94" r="94"/><path class="bb4aa9c4-2e07-4a99-89cc-ea4b601a4c37" d="M282,188A94,94,0,0,1,282,0" transform="translate(0 0)"/><path class="bb4aa9c4-2e07-4a99-89cc-ea4b601a4c37" d="M376,188A94,94,0,0,1,376,0" transform="translate(0 0)"/><path class="bb4aa9c4-2e07-4a99-89cc-ea4b601a4c37" d="M376,94a94,94,0,0,1,188,0" transform="translate(0 0)"/><path class="bb4aa9c4-2e07-4a99-89cc-ea4b601a4c37" d="M0,282.16a94,94,0,1,1,188,0" transform="translate(0 0)"/><path class="bb4aa9c4-2e07-4a99-89cc-ea4b601a4c37" d="M0,376.16a94,94,0,1,1,188,0" transform="translate(0 0)"/><circle class="bb4aa9c4-2e07-4a99-89cc-ea4b601a4c37" cx="282" cy="282" r="94"/><path class="bb4aa9c4-2e07-4a99-89cc-ea4b601a4c37" d="M375.87,470a94,94,0,0,1,188,0" transform="translate(0 0)"/><path class="bb4aa9c4-2e07-4a99-89cc-ea4b601a4c37" d="M375.87,564a94,94,0,0,1,188,0" transform="translate(0 0)"/><circle class="bb4aa9c4-2e07-4a99-89cc-ea4b601a4c37" cx="1034" cy="94" r="94"/><path class="bb4aa9c4-2e07-4a99-89cc-ea4b601a4c37" d="M940,282a94,94,0,0,1,188,0" transform="translate(0 0)"/><path class="bb4aa9c4-2e07-4a99-89cc-ea4b601a4c37" d="M940,376a94,94,0,0,1,188,0" transform="translate(0 0)"/><path class="bb4aa9c4-2e07-4a99-89cc-ea4b601a4c37" d="M1034,376a94,94,0,0,1,0,188" transform="translate(0 0)"/><path class="bb4aa9c4-2e07-4a99-89cc-ea4b601a4c37" d="M845.84,0a94,94,0,1,1,0,188" transform="translate(0 0)"/><path class="bb4aa9c4-2e07-4a99-89cc-ea4b601a4c37" d="M751.84,0a94,94,0,1,1,0,188" transform="translate(0 0)"/><circle class="bb4aa9c4-2e07-4a99-89cc-ea4b601a4c37" cx="846" cy="282" r="94"/><path class="bb4aa9c4-2e07-4a99-89cc-ea4b601a4c37" d="M658,375.87a94,94,0,0,1,0,188" transform="translate(0 0)"/><path class="bb4aa9c4-2e07-4a99-89cc-ea4b601a4c37" d="M564,375.89a94,94,0,0,1,0,188" transform="translate(0 0)"/><circle class="bb4aa9c4-2e07-4a99-89cc-ea4b601a4c37" cx="658" cy="658" r="94"/><path class="bb4aa9c4-2e07-4a99-89cc-ea4b601a4c37" d="M846,752a94,94,0,0,1,0-188" transform="translate(0 0)"/><path class="bb4aa9c4-2e07-4a99-89cc-ea4b601a4c37" d="M940,752a94,94,0,0,1,0-188" transform="translate(0 0)"/><path class="bb4aa9c4-2e07-4a99-89cc-ea4b601a4c37" d="M940,658a94,94,0,0,1,188,0" transform="translate(0 0)"/><path class="bb4aa9c4-2e07-4a99-89cc-ea4b601a4c37" d="M564,846.16a94,94,0,0,1,188,0" transform="translate(0 0)"/><path class="bb4aa9c4-2e07-4a99-89cc-ea4b601a4c37" d="M564,940.16a94,94,0,0,1,188,0" transform="translate(0 0)"/><circle class="bb4aa9c4-2e07-4a99-89cc-ea4b601a4c37" cx="846" cy="846" r="94"/><path class="bb4aa9c4-2e07-4a99-89cc-ea4b601a4c37" d="M939.87,1034a94,94,0,0,1,188,0" transform="translate(0 0)"/><path class="bb4aa9c4-2e07-4a99-89cc-ea4b601a4c37" d="M939.87,1128a94,94,0,0,1,188,0" transform="translate(0 0)"/><circle class="bb4aa9c4-2e07-4a99-89cc-ea4b601a4c37" cx="470" cy="658" r="94"/><circle class="bb4aa9c4-2e07-4a99-89cc-ea4b601a4c37" cx="1222" cy="470" r="94"/><path class="bb4aa9c4-2e07-4a99-89cc-ea4b601a4c37" d="M1316,282a94,94,0,0,1-188,0" transform="translate(0 0)"/><path class="bb4aa9c4-2e07-4a99-89cc-ea4b601a4c37" d="M1316,188a94,94,0,0,1-188,0" transform="translate(0 0)"/><path class="bb4aa9c4-2e07-4a99-89cc-ea4b601a4c37" d="M1222,188a94,94,0,0,1,0-188" transform="translate(0 0)"/><path class="bb4aa9c4-2e07-4a99-89cc-ea4b601a4c37" d="M1410.16,564a94,94,0,0,1,0-188" transform="translate(0 0)"/><path class="bb4aa9c4-2e07-4a99-89cc-ea4b601a4c37" d="M1504.16,564a94,94,0,0,1,0-188" transform="translate(0 0)"/><circle class="bb4aa9c4-2e07-4a99-89cc-ea4b601a4c37" cx="1410" cy="282" r="94"/><path class="bb4aa9c4-2e07-4a99-89cc-ea4b601a4c37" d="M1598,188.13a94,94,0,0,1,0-188" transform="translate(0 0)"/><path class="bb4aa9c4-2e07-4a99-89cc-ea4b601a4c37" d="M1692,188.11a94,94,0,0,1,0-188" transform="translate(0 0)"/><circle class="bb4aa9c4-2e07-4a99-89cc-ea4b601a4c37" cx="1504" cy="658" r="94"/><path class="bb4aa9c4-2e07-4a99-89cc-ea4b601a4c37" d="M1504,752a94,94,0,0,1,0,188" transform="translate(0 0)"/><path class="bb4aa9c4-2e07-4a99-89cc-ea4b601a4c37" d="M1692,940a94,94,0,0,1,0-188" transform="translate(0 0)"/><path class="bb4aa9c4-2e07-4a99-89cc-ea4b601a4c37" d="M282,846a94,94,0,0,1-188,0" transform="translate(0 0)"/><path class="bb4aa9c4-2e07-4a99-89cc-ea4b601a4c37" d="M0,940a94,94,0,0,1,94,94,94,94,0,0,1-94,94" transform="translate(0 0)"/><circle class="bb4aa9c4-2e07-4a99-89cc-ea4b601a4c37" cx="188" cy="1034" r="94"/><path class="bb4aa9c4-2e07-4a99-89cc-ea4b601a4c37" d="M376.16,1128a94,94,0,0,1,0-188" transform="translate(0 0)"/><path class="bb4aa9c4-2e07-4a99-89cc-ea4b601a4c37" d="M470.16,1128a94,94,0,0,1,0-188" transform="translate(0 0)"/><path class="bb4aa9c4-2e07-4a99-89cc-ea4b601a4c37" d="M1692,376a94,94,0,0,1,0,188" transform="translate(0 0)"/><path class="bb4aa9c4-2e07-4a99-89cc-ea4b601a4c37" d="M1786,658a94,94,0,0,1,188,0" transform="translate(0 0)"/><circle class="bb4aa9c4-2e07-4a99-89cc-ea4b601a4c37" cx="1880" cy="470" r="94"/><path class="bb4aa9c4-2e07-4a99-89cc-ea4b601a4c37" d="M1974,281.84a94,94,0,0,1-188,0" transform="translate(0 0)"/><path class="bb4aa9c4-2e07-4a99-89cc-ea4b601a4c37" d="M1974,187.84a94,94,0,0,1-188,0" transform="translate(0 0)"/></g></svg>