<svg id="e04c8be5-1c86-4a1a-b3cd-bc719daeaa25" data-name="Layer 1" xmlns="http://www.w3.org/2000/svg" viewBox="0 0 1123.78 205.06"><defs><style>.b6167463-bff6-4a53-9cea-1712c5561f91{fill:#00607f;}.ba6a2d8b-abda-4ba6-933d-5e8d069b13ed{fill:#003255;}.f3c5f52c-73d1-46f2-8fac-74d9bd517fe1{fill:#fcffdb;}</style></defs><path class="b6167463-bff6-4a53-9cea-1712c5561f91" d="M328.31,328.33a101.14,101.14,0,0,1-28.16-3.86,71.73,71.73,0,0,1-22.78-10.78L295.23,292a71,71,0,0,0,16.59,7.63,56.06,56.06,0,0,0,16.49,2.67q10.14,0,15.75-2.21t5.6-6.13q0-4.74-3.86-6.5a32,32,0,0,0-10.09-2.32q-6.24-.55-13.21-1.49t-14-2.22a45.29,45.29,0,0,1-12.62-4.22,21.8,21.8,0,0,1-9.09-8.87q-3.39-5.93-3.39-16.12,0-16.18,11.74-25t33.18-8.86a87.14,87.14,0,0,1,24.78,3.6,76.92,76.92,0,0,1,21.83,10.21l-17.23,20.51a70.4,70.4,0,0,0-15-6.08,55.9,55.9,0,0,0-15-2.17q-8.78,0-13.64,1.91t-4.86,5.51q0,3.09,3.38,4.64a30.82,30.82,0,0,0,8.88,2.22q5.49.66,11.84,1.39,7.29.83,14.69,2a46.41,46.41,0,0,1,13.58,4.28,24.22,24.22,0,0,1,10,9.37q3.79,6.3,3.8,17.32,0,16.8-12.31,26.07T328.31,328.33Z" transform="translate(-90.38 -169.94)"/><path class="b6167463-bff6-4a53-9cea-1712c5561f91" d="M445,328.33q-23.58,0-36.57-13t-13-36.58V267.32q0-23.4,13-36.23T445,218.26a64.7,64.7,0,0,1,24.46,4.43,41.07,41.07,0,0,1,17.39,12.68l-18.71,17.72a27.9,27.9,0,0,0-9.35-5.61,32.56,32.56,0,0,0-11.36-2q-11,0-17,5.72t-6,16.13v11.44q0,10.71,6,16.54t17,5.82A30.54,30.54,0,0,0,458.78,299a26.68,26.68,0,0,0,9.35-6.19l18.71,18.76A41.53,41.53,0,0,1,469.45,324,65.29,65.29,0,0,1,445,328.33Z" transform="translate(-90.38 -169.94)"/><path class="b6167463-bff6-4a53-9cea-1712c5561f91" d="M550.56,328.33q-22.6,0-35-12.21t-12.36-34.38V264.33q0-22,12.36-34t35-12.06q22.62,0,35,12.06t12.36,34v17.72q0,22.07-12.36,34.17T550.56,328.33Zm-.1-27.21q8.77,0,13.63-5T569,282.05V264.33q0-9-4.86-13.92t-13.63-4.94q-8.67,0-13.48,4.94t-4.8,13.92v17.72q0,9.07,4.8,14.07T550.46,301.12Z" transform="translate(-90.38 -169.94)"/><path class="b6167463-bff6-4a53-9cea-1712c5561f91" d="M624.33,326.78v-107H655.4v107Zm61.72-77.19a12.38,12.38,0,0,0-5.12-3.09,22.65,22.65,0,0,0-7.14-1q-8.77,0-13.58,5.51t-4.81,15.31l-2.22-27.83A38.9,38.9,0,0,1,665,223.62a26.08,26.08,0,0,1,15.9-5.36,34.65,34.65,0,0,1,12.42,2.11A27.32,27.32,0,0,1,703,226.6Z" transform="translate(-90.38 -169.94)"/><path class="b6167463-bff6-4a53-9cea-1712c5561f91" d="M761.62,328.33q-23.89,0-37-12.52T711.42,280.4v-12q0-23.91,12.63-37t35.66-13.09q21.78,0,33.67,15.61t11.89,44v7h-75V265.77h48.61l-.31-2.47q-1.17-9.18-5.92-14.28t-12.9-5.1q-10.46,0-16.22,6.08t-5.76,17.21v13.61q0,10.92,6.29,16.9t17.6,6a34.51,34.51,0,0,0,11.52-2A35.36,35.36,0,0,0,783.49,296l18.92,16.38a63.43,63.43,0,0,1-19.23,11.81A58.87,58.87,0,0,1,761.62,328.33Z" transform="translate(-90.38 -169.94)"/><path class="ba6a2d8b-abda-4ba6-933d-5e8d069b13ed" d="M859.59,176.93v114.5a7.83,7.83,0,0,0,2.27,6,9.06,9.06,0,0,0,6.5,2.17h4.86v27.2h-14.8q-13.2,0-20.5-7.42t-7.29-20.92V176.93Z" transform="translate(-90.38 -169.94)"/><path class="ba6a2d8b-abda-4ba6-933d-5e8d069b13ed" d="M922.05,328.33q-17.55,0-26.32-8.14T887,295.25q0-16,9.77-23.86t29.33-7.89h27.48L955,285H926.17q-6.55,0-9.83,2.53t-3.28,7.68a8.46,8.46,0,0,0,4.18,7.78q4.17,2.52,12.42,2.52,11.51,0,17.22-2.57t5.71-8l2.22,15.56a14.36,14.36,0,0,1-5.6,10.05A32.69,32.69,0,0,1,937,326.42,58.53,58.53,0,0,1,922.05,328.33Zm30.54-1.55V259q0-7.43-5.07-11.44t-14.38-4a40.07,40.07,0,0,0-12.15,1.9,34,34,0,0,0-10.67,5.52l-18-17.21a43.19,43.19,0,0,1,17.33-11.39,67,67,0,0,1,23.89-4.07q21.66,0,33.5,10.41T978.9,258v68.74Z" transform="translate(-90.38 -169.94)"/><path class="ba6a2d8b-abda-4ba6-933d-5e8d069b13ed" d="M1007.44,326.78V176.93h29V326.78Zm54.43,1.55a28.64,28.64,0,0,1-16.6-4.79A28.23,28.23,0,0,1,1034.92,310l1.48-24.42a19.41,19.41,0,0,0,1.9,9,13,13,0,0,0,5.55,5.67,18.36,18.36,0,0,0,8.82,2q8.14,0,12.63-5.25t4.49-14.85v-17q0-9.8-4.49-15.2t-12.63-5.41a18,18,0,0,0-8.82,2,13.26,13.26,0,0,0-5.55,5.83,20.56,20.56,0,0,0-1.9,9.27l-2.22-23.7a36.1,36.1,0,0,1,11.68-14.48,27.16,27.16,0,0,1,16-5.1q17.64,0,27.26,12.21t9.62,34.48v17.1q0,22.07-9.62,34.17T1061.87,328.33Z" transform="translate(-90.38 -169.94)"/><path class="ba6a2d8b-abda-4ba6-933d-5e8d069b13ed" d="M1167.13,328.33a101.21,101.21,0,0,1-28.17-3.86,71.78,71.78,0,0,1-22.77-10.78L1134.05,292a70.6,70.6,0,0,0,16.59,7.63,56,56,0,0,0,16.49,2.67q10.14,0,15.75-2.21t5.6-6.13q0-4.74-3.86-6.5a32,32,0,0,0-10.09-2.32q-6.24-.55-13.21-1.49c-4.73-.62-9.39-1.36-14-2.22a45.47,45.47,0,0,1-12.63-4.22,21.91,21.91,0,0,1-9.09-8.87q-3.37-5.93-3.38-16.12,0-16.18,11.73-25t33.19-8.86a87.19,87.19,0,0,1,24.78,3.6,76.92,76.92,0,0,1,21.83,10.21l-17.23,20.51a70.62,70.62,0,0,0-15-6.08,55.91,55.91,0,0,0-15-2.17q-8.76,0-13.63,1.91t-4.86,5.51q0,3.09,3.38,4.64a30.73,30.73,0,0,0,8.88,2.22q5.49.66,11.84,1.39,7.29.83,14.69,2a46.41,46.41,0,0,1,13.58,4.28,24.14,24.14,0,0,1,10,9.37q3.81,6.3,3.81,17.32,0,16.8-12.31,26.07T1167.13,328.33Z" transform="translate(-90.38 -169.94)"/><rect class="ba6a2d8b-abda-4ba6-933d-5e8d069b13ed" x="110.87" y="30.5" width="40.56" height="126.34"/><rect class="ba6a2d8b-abda-4ba6-933d-5e8d069b13ed" x="55.44" width="40.56" height="156.84"/><rect class="ba6a2d8b-abda-4ba6-933d-5e8d069b13ed" y="67.64" width="40.56" height="89.2"/><rect class="f3c5f52c-73d1-46f2-8fac-74d9bd517fe1" x="20.28" y="72.99" width="15.49" height="77.66"/><rect class="f3c5f52c-73d1-46f2-8fac-74d9bd517fe1" x="131.15" y="36.3" width="15.49" height="114.76"/><rect class="f3c5f52c-73d1-46f2-8fac-74d9bd517fe1" x="75.72" y="5.27" width="15.49" height="145.78"/><path class="ba6a2d8b-abda-4ba6-933d-5e8d069b13ed" d="M101.63,367.85a18.17,18.17,0,0,1-3.71-.37,16.77,16.77,0,0,1-3.41-1.08,14.44,14.44,0,0,1-2.86-1.71l2.32-4a11.15,11.15,0,0,0,3.53,1.87,13.12,13.12,0,0,0,4.13.66,7.42,7.42,0,0,0,3.79-.8,2.49,2.49,0,0,0,1.35-2.25v0a2.13,2.13,0,0,0-.68-1.7,4.3,4.3,0,0,0-1.78-.87,23.54,23.54,0,0,0-2.39-.47c-1-.16-2.08-.35-3.14-.57a10.74,10.74,0,0,1-2.92-1.09,5.71,5.71,0,0,1-2.14-2.14,7.34,7.34,0,0,1-.81-3.71v0a7,7,0,0,1,2.55-5.79c1.7-1.36,4.11-2.05,7.22-2.05a14.72,14.72,0,0,1,4.38.7,15.78,15.78,0,0,1,4.14,2l-2.12,4.07a13.09,13.09,0,0,0-3.2-1.59,10.11,10.11,0,0,0-3.2-.55,7.09,7.09,0,0,0-3.55.73,2.26,2.26,0,0,0-1.26,2h0a2.31,2.31,0,0,0,.75,1.87,4.93,4.93,0,0,0,1.95.94c.8.2,1.66.39,2.59.57s2,.42,3,.69a10.59,10.59,0,0,1,2.77,1.19,5.65,5.65,0,0,1,2,2.13,7.19,7.19,0,0,1,.75,3.51v0a6.8,6.8,0,0,1-2.65,5.72C107.32,367.17,104.83,367.85,101.63,367.85Z" transform="translate(-90.38 -169.94)"/><path class="ba6a2d8b-abda-4ba6-933d-5e8d069b13ed" d="M133.62,367.85a8.26,8.26,0,0,1-6-2.08,7.85,7.85,0,0,1-2.14-5.87v-3a7.7,7.7,0,0,1,2.14-5.8,9.91,9.91,0,0,1,12.07,0,7.69,7.69,0,0,1,2.13,5.8v3a7.73,7.73,0,0,1-2.13,5.82A8.34,8.34,0,0,1,133.62,367.85Zm0-4.64a3.2,3.2,0,0,0,2.36-.85,3.32,3.32,0,0,0,.83-2.4v-3a3.24,3.24,0,0,0-.83-2.37,3.2,3.2,0,0,0-2.36-.84,3.11,3.11,0,0,0-2.32.84,3.24,3.24,0,0,0-.83,2.37v3a3.32,3.32,0,0,0,.83,2.4A3.12,3.12,0,0,0,133.6,363.21Z" transform="translate(-90.38 -169.94)"/><path class="ba6a2d8b-abda-4ba6-933d-5e8d069b13ed" d="M155,353.45v-4.11h10.19v4.11Zm2,14.14V346.86a5.12,5.12,0,0,1,1.14-3.62A4.72,4.72,0,0,1,161.7,342h3.46v4.29h-2.11a.88.88,0,0,0-.82.41,1.81,1.81,0,0,0-.26,1v19.88Z" transform="translate(-90.38 -169.94)"/><path class="ba6a2d8b-abda-4ba6-933d-5e8d069b13ed" d="M176.88,353.45v-4.11h9.27v4.11Zm6.75,14.22a4.72,4.72,0,0,1-3.66-1.24,5.15,5.15,0,0,1-1.13-3.59V344h5v17.61a1.67,1.67,0,0,0,.27,1,.94.94,0,0,0,.81.37h1.24v4.64Z" transform="translate(-90.38 -169.94)"/><path class="ba6a2d8b-abda-4ba6-933d-5e8d069b13ed" d="M204.8,367.59,199,349.34h4.8l3.35,11.27,4-11.27h3l4,11.27,3.36-11.27h4.79l-5.83,18.25h-3.72l-4.07-11.9-4.06,11.9Z" transform="translate(-90.38 -169.94)"/><path class="ba6a2d8b-abda-4ba6-933d-5e8d069b13ed" d="M244.71,367.85a6.49,6.49,0,0,1-4.54-1.39,5.48,5.48,0,0,1-1.52-4.25,4.89,4.89,0,0,1,1.69-4.07,8,8,0,0,1,5.06-1.35h4.74l.25,3.68h-5a2.77,2.77,0,0,0-1.7.43,1.52,1.52,0,0,0-.56,1.31,1.43,1.43,0,0,0,.72,1.32A4.21,4.21,0,0,0,246,364a7.76,7.76,0,0,0,3-.43,1.45,1.45,0,0,0,1-1.38l.38,2.66a2.43,2.43,0,0,1-1,1.71,5.54,5.54,0,0,1-2.1,1A10.14,10.14,0,0,1,244.71,367.85Zm5.27-.26V356a2.35,2.35,0,0,0-.88-1.95,3.91,3.91,0,0,0-2.48-.69,7,7,0,0,0-2.1.33,5.82,5.82,0,0,0-1.84.94l-3.1-2.94a7.5,7.5,0,0,1,3-1.94,11.79,11.79,0,0,1,4.12-.69,8.54,8.54,0,0,1,5.78,1.77,6.31,6.31,0,0,1,2.05,5v11.73Z" transform="translate(-90.38 -169.94)"/><path class="ba6a2d8b-abda-4ba6-933d-5e8d069b13ed" d="M269.52,367.59V349.34h5.36v18.25Zm10.65-13.17a2.25,2.25,0,0,0-.89-.53,4.2,4.2,0,0,0-1.23-.17,2.94,2.94,0,0,0-2.34.94,3.8,3.8,0,0,0-.83,2.61l-.38-4.75a6.63,6.63,0,0,1,2-2.53,4.53,4.53,0,0,1,2.74-.91,6.1,6.1,0,0,1,2.15.36,4.67,4.67,0,0,1,1.66,1.06Z" transform="translate(-90.38 -169.94)"/><path class="ba6a2d8b-abda-4ba6-933d-5e8d069b13ed" d="M303.28,367.85a9,9,0,0,1-6.39-2.14,7.88,7.88,0,0,1-2.27-6v-2.06a8.67,8.67,0,0,1,2.18-6.31,8.21,8.21,0,0,1,6.16-2.23,6.87,6.87,0,0,1,5.8,2.66q2.06,2.65,2.05,7.5v1.19H297.87v-3.25h8.39l-.06-.42a4.18,4.18,0,0,0-1-2.44,2.91,2.91,0,0,0-2.22-.87,3.69,3.69,0,0,0-2.8,1,4,4,0,0,0-1,2.94v2.32a3.74,3.74,0,0,0,1.09,2.88,4.24,4.24,0,0,0,3,1,6.15,6.15,0,0,0,3.78-1.32l3.26,2.8a11.13,11.13,0,0,1-3.32,2A10.28,10.28,0,0,1,303.28,367.85Z" transform="translate(-90.38 -169.94)"/><path class="ba6a2d8b-abda-4ba6-933d-5e8d069b13ed" d="M350.52,367.85a6.49,6.49,0,0,1-4.54-1.39,5.48,5.48,0,0,1-1.51-4.25,4.89,4.89,0,0,1,1.68-4.07,8,8,0,0,1,5.06-1.35H356l.26,3.68h-5a2.73,2.73,0,0,0-1.69.43,1.52,1.52,0,0,0-.57,1.31,1.43,1.43,0,0,0,.72,1.32,4.23,4.23,0,0,0,2.14.43,7.78,7.78,0,0,0,3-.43,1.46,1.46,0,0,0,1-1.38l.38,2.66a2.42,2.42,0,0,1-1,1.71,5.59,5.59,0,0,1-2.11,1A10,10,0,0,1,350.52,367.85Zm5.27-.26V356a2.35,2.35,0,0,0-.87-1.95,4,4,0,0,0-2.48-.69,6.87,6.87,0,0,0-2.1.33,5.72,5.72,0,0,0-1.84.94l-3.1-2.94a7.43,7.43,0,0,1,3-1.94,11.75,11.75,0,0,1,4.12-.69,8.56,8.56,0,0,1,5.78,1.77,6.3,6.3,0,0,1,2,5v11.73Z" transform="translate(-90.38 -169.94)"/><path class="ba6a2d8b-abda-4ba6-933d-5e8d069b13ed" d="M375.33,367.59V349.34h5v18.25Zm10.94,0V356.53a2.67,2.67,0,0,0-.79-2.08,3.19,3.19,0,0,0-2.25-.73,2.93,2.93,0,0,0-2.14.74,2.8,2.8,0,0,0-.76,2.1l-.38-4a7.09,7.09,0,0,1,2-2.55,5,5,0,0,1,3.06-.89,5.72,5.72,0,0,1,4.63,1.94,8.27,8.27,0,0,1,1.64,5.49v11.08Z" transform="translate(-90.38 -169.94)"/><path class="ba6a2d8b-abda-4ba6-933d-5e8d069b13ed" d="M412.09,367.85a5.71,5.71,0,0,1-4.7-2.07,9,9,0,0,1-1.66-5.82V357a9.21,9.21,0,0,1,1.66-5.88,5.68,5.68,0,0,1,4.7-2.08,4.71,4.71,0,0,1,2.76.87,6.18,6.18,0,0,1,2,2.47l-.39,4a3.45,3.45,0,0,0-.33-1.58,2.19,2.19,0,0,0-.95-1,3.25,3.25,0,0,0-1.52-.34,2.69,2.69,0,0,0-2.18.92,3.92,3.92,0,0,0-.78,2.6V360a3.74,3.74,0,0,0,.78,2.53,2.7,2.7,0,0,0,2.18.89,3.25,3.25,0,0,0,1.52-.33,2.12,2.12,0,0,0,.95-1,3.26,3.26,0,0,0,.33-1.53l.26,4.17A4.68,4.68,0,0,1,415,367,5,5,0,0,1,412.09,367.85Zm4.39-.26V342h5v25.56Z" transform="translate(-90.38 -169.94)"/><path class="ba6a2d8b-abda-4ba6-933d-5e8d069b13ed" d="M466,367.85a11.05,11.05,0,0,1-5.19-1.12,7.5,7.5,0,0,1-3.27-3.25,10.93,10.93,0,0,1-1.13-5.16v-7a10.94,10.94,0,0,1,1.13-5.17,7.6,7.6,0,0,1,3.27-3.25,11.05,11.05,0,0,1,5.19-1.13,9.46,9.46,0,0,1,4.48,1,8.71,8.71,0,0,1,3.24,3,12.57,12.57,0,0,1,1.78,4.78h-5.18a6,6,0,0,0-.9-2.17,4.38,4.38,0,0,0-1.48-1.37,4,4,0,0,0-1.94-.47,4.21,4.21,0,0,0-3.25,1.24,4.89,4.89,0,0,0-1.16,3.49v7a4.85,4.85,0,0,0,1.16,3.48A4.24,4.24,0,0,0,466,363a4,4,0,0,0,2.77-1,5.57,5.57,0,0,0,1.55-3h5.18a12.89,12.89,0,0,1-1.8,4.77,8.61,8.61,0,0,1-3.23,3A9.39,9.39,0,0,1,466,367.85Z" transform="translate(-90.38 -169.94)"/><path class="ba6a2d8b-abda-4ba6-933d-5e8d069b13ed" d="M497.39,367.85a8.26,8.26,0,0,1-6-2.08,7.84,7.84,0,0,1-2.13-5.87v-3a7.69,7.69,0,0,1,2.13-5.8,9.91,9.91,0,0,1,12.07,0,7.69,7.69,0,0,1,2.13,5.8v3a7.73,7.73,0,0,1-2.13,5.82A8.3,8.3,0,0,1,497.39,367.85Zm0-4.64a3.19,3.19,0,0,0,2.35-.85,3.28,3.28,0,0,0,.84-2.4v-3a2.92,2.92,0,0,0-3.19-3.21,3.12,3.12,0,0,0-2.33.84,3.24,3.24,0,0,0-.83,2.37v3a3.32,3.32,0,0,0,.83,2.4A3.13,3.13,0,0,0,497.38,363.21Z" transform="translate(-90.38 -169.94)"/><path class="ba6a2d8b-abda-4ba6-933d-5e8d069b13ed" d="M520.2,367.59V349.34h5v18.25Zm11,0V357.06a3.48,3.48,0,0,0-.81-2.47,3,3,0,0,0-2.32-.87,3,3,0,0,0-2.15.74,2.84,2.84,0,0,0-.75,2.1l-.39-4a6.84,6.84,0,0,1,2.07-2.55,5,5,0,0,1,3-.89,5.68,5.68,0,0,1,4.71,2.08,9.27,9.27,0,0,1,1.66,5.88v10.55Zm11,0V357.06a3.52,3.52,0,0,0-.79-2.47,3.36,3.36,0,0,0-4.47,0,3.4,3.4,0,0,0-.77,2.37l-.93-4.22a6.75,6.75,0,0,1,2.33-2.68,5.66,5.66,0,0,1,3.17-.94,5.77,5.77,0,0,1,4.77,2.08,9.09,9.09,0,0,1,1.69,5.88v10.55Z" transform="translate(-90.38 -169.94)"/><path class="ba6a2d8b-abda-4ba6-933d-5e8d069b13ed" d="M562.26,375V349.34h5V375Zm9.39-7.15a4.94,4.94,0,0,1-2.86-.82,4.81,4.81,0,0,1-1.79-2.31l.26-4.17a3.26,3.26,0,0,0,.33,1.53,2.12,2.12,0,0,0,.95,1,3.26,3.26,0,0,0,1.53.33,2.69,2.69,0,0,0,2.17-.89A3.74,3.74,0,0,0,573,360v-2.9a3.92,3.92,0,0,0-.78-2.6,2.68,2.68,0,0,0-2.17-.92,3.26,3.26,0,0,0-1.53.34,2.19,2.19,0,0,0-.95,1,3.45,3.45,0,0,0-.33,1.58l-.39-4a6.26,6.26,0,0,1,2-2.47,4.71,4.71,0,0,1,2.76-.87,5.68,5.68,0,0,1,4.71,2.08A9.27,9.27,0,0,1,578,357V360a9.1,9.1,0,0,1-1.65,5.82A5.7,5.7,0,0,1,571.65,367.85Z" transform="translate(-90.38 -169.94)"/><path class="ba6a2d8b-abda-4ba6-933d-5e8d069b13ed" d="M597.19,349.34v11.09a2.68,2.68,0,0,0,.78,2.05,3,3,0,0,0,2.18.73,3,3,0,0,0,2.16-.75,2.88,2.88,0,0,0,.75-2.13l.26,4a6,6,0,0,1-1.67,2.44,4.37,4.37,0,0,1-3.09,1.09,5.88,5.88,0,0,1-4.7-1.9,7.83,7.83,0,0,1-1.66-5.34V349.34Zm5.87,18.25V349.34h5v18.25Z" transform="translate(-90.38 -169.94)"/><path class="ba6a2d8b-abda-4ba6-933d-5e8d069b13ed" d="M621.59,353.45v-4.11h9.26v4.11Zm6.74,14.22a4.72,4.72,0,0,1-3.66-1.24,5.2,5.2,0,0,1-1.13-3.59V344h5v17.61a1.67,1.67,0,0,0,.28,1,.92.92,0,0,0,.8.37h1.24v4.64Z" transform="translate(-90.38 -169.94)"/><path class="ba6a2d8b-abda-4ba6-933d-5e8d069b13ed" d="M653.42,367.85a8.93,8.93,0,0,1-6.39-2.14,7.88,7.88,0,0,1-2.27-6v-2.06a8.67,8.67,0,0,1,2.18-6.31,8.18,8.18,0,0,1,6.15-2.23,6.89,6.89,0,0,1,5.81,2.66q2.05,2.65,2.05,7.5v1.19H648v-3.25h8.39l0-.42a4.31,4.31,0,0,0-1-2.44,2.92,2.92,0,0,0-2.23-.87,3.72,3.72,0,0,0-2.8,1,4.08,4.08,0,0,0-1,2.94v2.32a3.77,3.77,0,0,0,1.08,2.88,4.28,4.28,0,0,0,3,1,6.26,6.26,0,0,0,2-.34,6.18,6.18,0,0,0,1.78-1l3.27,2.8a11.26,11.26,0,0,1-3.32,2A10.36,10.36,0,0,1,653.42,367.85Z" transform="translate(-90.38 -169.94)"/><path class="ba6a2d8b-abda-4ba6-933d-5e8d069b13ed" d="M675.41,367.59V349.34h5.36v18.25Zm10.64-13.17a2.21,2.21,0,0,0-.88-.53,4.2,4.2,0,0,0-1.23-.17,2.94,2.94,0,0,0-2.34.94,3.75,3.75,0,0,0-.83,2.61l-.39-4.75a6.66,6.66,0,0,1,2-2.53,4.51,4.51,0,0,1,2.74-.91,6,6,0,0,1,2.14.36A4.62,4.62,0,0,1,689,350.5Z" transform="translate(-90.38 -169.94)"/><path class="ba6a2d8b-abda-4ba6-933d-5e8d069b13ed" d="M699.6,356.11h13v4.64h-13Z" transform="translate(-90.38 -169.94)"/><path class="ba6a2d8b-abda-4ba6-933d-5e8d069b13ed" d="M737.08,367.85a10.6,10.6,0,0,1-5.09-1.17,8.33,8.33,0,0,1-3.38-3.3,9.79,9.79,0,0,1-1.21-4.95v-7.24a9.81,9.81,0,0,1,1.21-5,8.37,8.37,0,0,1,3.38-3.29,11.68,11.68,0,0,1,10.19,0,8.37,8.37,0,0,1,3.38,3.29,9.92,9.92,0,0,1,1.21,5v7.24a9.89,9.89,0,0,1-1.21,4.95,8.33,8.33,0,0,1-3.38,3.3A10.61,10.61,0,0,1,737.08,367.85Zm0-4.82a4.23,4.23,0,0,0,4.51-4.48v-7.49a4.4,4.4,0,0,0-1.23-3.26,5,5,0,0,0-6.55,0,4.4,4.4,0,0,0-1.23,3.26v7.49a4.23,4.23,0,0,0,4.5,4.48Z" transform="translate(-90.38 -169.94)"/><path class="ba6a2d8b-abda-4ba6-933d-5e8d069b13ed" d="M761.77,367.59V349.34h5.36v18.25Zm10.65-13.17a2.25,2.25,0,0,0-.89-.53,4.2,4.2,0,0,0-1.23-.17,2.94,2.94,0,0,0-2.34.94,3.8,3.8,0,0,0-.83,2.61l-.38-4.75a6.63,6.63,0,0,1,2-2.53,4.53,4.53,0,0,1,2.74-.91,6.1,6.1,0,0,1,2.15.36,4.67,4.67,0,0,1,1.66,1.06Z" transform="translate(-90.38 -169.94)"/><path class="ba6a2d8b-abda-4ba6-933d-5e8d069b13ed" d="M787.51,346.84V342h5v4.81Zm0,20.75V349.34h5v18.25Z" transform="translate(-90.38 -169.94)"/><path class="ba6a2d8b-abda-4ba6-933d-5e8d069b13ed" d="M815.35,367.85a9,9,0,0,1-6.39-2.14,7.88,7.88,0,0,1-2.27-6v-2.06a8.67,8.67,0,0,1,2.18-6.31,8.18,8.18,0,0,1,6.15-2.23,6.89,6.89,0,0,1,5.81,2.66q2.05,2.65,2,7.5v1.19H809.94v-3.25h8.38l-.05-.42a4.25,4.25,0,0,0-1-2.44,2.92,2.92,0,0,0-2.23-.87,3.68,3.68,0,0,0-2.79,1,4,4,0,0,0-1,2.94v2.32a3.74,3.74,0,0,0,1.09,2.88,4.24,4.24,0,0,0,3,1,6.15,6.15,0,0,0,3.78-1.32l3.26,2.8a11.13,11.13,0,0,1-3.32,2A10.36,10.36,0,0,1,815.35,367.85Z" transform="translate(-90.38 -169.94)"/><path class="ba6a2d8b-abda-4ba6-933d-5e8d069b13ed" d="M837.34,367.59V349.34h5v18.25Zm10.94,0V356.53a2.71,2.71,0,0,0-.79-2.08,3.2,3.2,0,0,0-2.26-.73,3,3,0,0,0-2.14.74,2.84,2.84,0,0,0-.76,2.1l-.38-4a7.22,7.22,0,0,1,2-2.55,4.93,4.93,0,0,1,3-.89,5.7,5.7,0,0,1,4.63,1.94,8.22,8.22,0,0,1,1.64,5.49v11.08Z" transform="translate(-90.38 -169.94)"/><path class="ba6a2d8b-abda-4ba6-933d-5e8d069b13ed" d="M866.82,353.45v-4.11h9.26v4.11Zm6.75,14.22a4.74,4.74,0,0,1-3.67-1.24,5.2,5.2,0,0,1-1.13-3.59V344h5v17.61a1.67,1.67,0,0,0,.27,1,.92.92,0,0,0,.8.37h1.24v4.64Z" transform="translate(-90.38 -169.94)"/><path class="ba6a2d8b-abda-4ba6-933d-5e8d069b13ed" d="M898.65,367.85a9,9,0,0,1-6.39-2.14,7.88,7.88,0,0,1-2.27-6v-2.06a8.67,8.67,0,0,1,2.18-6.31,8.18,8.18,0,0,1,6.15-2.23,6.89,6.89,0,0,1,5.81,2.66q2.05,2.65,2,7.5v1.19H893.24v-3.25h8.38l0-.42a4.25,4.25,0,0,0-1-2.44,2.92,2.92,0,0,0-2.23-.87,3.68,3.68,0,0,0-2.79,1,4,4,0,0,0-1,2.94v2.32a3.74,3.74,0,0,0,1.09,2.88,4.24,4.24,0,0,0,3,1,6.15,6.15,0,0,0,3.78-1.32l3.26,2.8a11.13,11.13,0,0,1-3.32,2A10.36,10.36,0,0,1,898.65,367.85Z" transform="translate(-90.38 -169.94)"/><path class="ba6a2d8b-abda-4ba6-933d-5e8d069b13ed" d="M926.45,367.85a5.69,5.69,0,0,1-4.69-2.07,9,9,0,0,1-1.67-5.82V357a9.21,9.21,0,0,1,1.67-5.88,5.66,5.66,0,0,1,4.69-2.08,4.76,4.76,0,0,1,2.77.87,6.16,6.16,0,0,1,2,2.47l-.38,4a3.45,3.45,0,0,0-.33-1.58,2.27,2.27,0,0,0-1-1,3.22,3.22,0,0,0-1.52-.34,2.7,2.7,0,0,0-2.18.92,3.92,3.92,0,0,0-.77,2.6V360a3.73,3.73,0,0,0,.77,2.53,2.72,2.72,0,0,0,2.18.89,3.22,3.22,0,0,0,1.52-.33,2.2,2.2,0,0,0,1-1,3.26,3.26,0,0,0,.33-1.53l.25,4.17a4.66,4.66,0,0,1-1.77,2.31A5,5,0,0,1,926.45,367.85Zm4.4-.26V342h5v25.56Z" transform="translate(-90.38 -169.94)"/><path class="ba6a2d8b-abda-4ba6-933d-5e8d069b13ed" d="M971.32,367.59V342h5v25.56Zm1.81-20.92V342h16v4.64Zm0,10.54v-4.64h14v4.64Zm0,10.38V363h16v4.64Z" transform="translate(-90.38 -169.94)"/><path class="ba6a2d8b-abda-4ba6-933d-5e8d069b13ed" d="M1009.17,367.85a5.67,5.67,0,0,1-4.69-2.07,9,9,0,0,1-1.67-5.82V357a9.15,9.15,0,0,1,1.67-5.88,5.65,5.65,0,0,1,4.69-2.08,4.71,4.71,0,0,1,2.76.87,6.1,6.1,0,0,1,2,2.47l-.38,4a3.45,3.45,0,0,0-.33-1.58,2.27,2.27,0,0,0-1-1,3.25,3.25,0,0,0-1.52-.34,2.69,2.69,0,0,0-2.18.92,3.92,3.92,0,0,0-.78,2.6V360a3.74,3.74,0,0,0,.78,2.53,2.7,2.7,0,0,0,2.18.89,3.25,3.25,0,0,0,1.52-.33,2.2,2.2,0,0,0,1-1,3.26,3.26,0,0,0,.33-1.53l.25,4.17A4.68,4.68,0,0,1,1012,367,5,5,0,0,1,1009.17,367.85Zm4.4-.26V342h5v25.56Z" transform="translate(-90.38 -169.94)"/><path class="ba6a2d8b-abda-4ba6-933d-5e8d069b13ed" d="M1038.56,349.34v11.09a2.71,2.71,0,0,0,.77,2.05,3.06,3.06,0,0,0,2.18.73,2.92,2.92,0,0,0,2.16-.75,2.85,2.85,0,0,0,.76-2.13l.26,4a6.11,6.11,0,0,1-1.67,2.44,4.4,4.4,0,0,1-3.09,1.09,5.92,5.92,0,0,1-4.71-1.9,7.88,7.88,0,0,1-1.66-5.34V349.34Zm5.87,18.25V349.34h5v18.25Z" transform="translate(-90.38 -169.94)"/><path class="ba6a2d8b-abda-4ba6-933d-5e8d069b13ed" d="M1072.42,367.85a8.58,8.58,0,0,1-6.31-2.22,8.34,8.34,0,0,1-2.24-6.24v-1.95a8.22,8.22,0,0,1,2.24-6.18,8.68,8.68,0,0,1,6.31-2.18,11.37,11.37,0,0,1,4.22.75,7.31,7.31,0,0,1,3,2.16l-3.23,3a4.84,4.84,0,0,0-1.62-1,5.57,5.57,0,0,0-2-.34,4.11,4.11,0,0,0-2.93,1,3.6,3.6,0,0,0-1,2.75v1.95a3.76,3.76,0,0,0,1,2.83,4.08,4.08,0,0,0,2.93,1,5.18,5.18,0,0,0,2-.37,4.72,4.72,0,0,0,1.62-1l3.23,3.19a7.23,7.23,0,0,1-3,2.12A11.37,11.37,0,0,1,1072.42,367.85Z" transform="translate(-90.38 -169.94)"/><path class="ba6a2d8b-abda-4ba6-933d-5e8d069b13ed" d="M1098.23,367.85a6.49,6.49,0,0,1-4.54-1.39,5.48,5.48,0,0,1-1.51-4.25,4.86,4.86,0,0,1,1.69-4.07,8,8,0,0,1,5.05-1.35h4.75l.25,3.68h-5a2.73,2.73,0,0,0-1.69.43,1.52,1.52,0,0,0-.57,1.31,1.43,1.43,0,0,0,.72,1.32,4.23,4.23,0,0,0,2.14.43,7.78,7.78,0,0,0,3-.43,1.46,1.46,0,0,0,1-1.38l.38,2.66a2.42,2.42,0,0,1-1,1.71,5.59,5.59,0,0,1-2.11,1A10,10,0,0,1,1098.23,367.85Zm5.27-.26V356a2.35,2.35,0,0,0-.87-1.95,3.93,3.93,0,0,0-2.48-.69,6.87,6.87,0,0,0-2.1.33,5.72,5.72,0,0,0-1.84.94l-3.1-2.94a7.43,7.43,0,0,1,3-1.94,11.75,11.75,0,0,1,4.12-.69,8.56,8.56,0,0,1,5.78,1.77,6.3,6.3,0,0,1,2,5v11.73Z" transform="translate(-90.38 -169.94)"/><path class="ba6a2d8b-abda-4ba6-933d-5e8d069b13ed" d="M1121.59,353.45v-4.11h9.26v4.11Zm6.74,14.22a4.72,4.72,0,0,1-3.66-1.24,5.15,5.15,0,0,1-1.13-3.59V344h5v17.61a1.61,1.61,0,0,0,.28,1,.92.92,0,0,0,.8.37h1.24v4.64Z" transform="translate(-90.38 -169.94)"/><path class="ba6a2d8b-abda-4ba6-933d-5e8d069b13ed" d="M1145,346.84V342h5v4.81Zm0,20.75V349.34h5v18.25Z" transform="translate(-90.38 -169.94)"/><path class="ba6a2d8b-abda-4ba6-933d-5e8d069b13ed" d="M1172.38,367.85a8.3,8.3,0,0,1-6-2.08,7.84,7.84,0,0,1-2.13-5.87v-3a7.69,7.69,0,0,1,2.13-5.8,9.91,9.91,0,0,1,12.07,0,7.66,7.66,0,0,1,2.14,5.8v3a7.69,7.69,0,0,1-2.14,5.82A8.3,8.3,0,0,1,1172.38,367.85Zm0-4.64a3.18,3.18,0,0,0,2.35-.85,3.28,3.28,0,0,0,.84-2.4v-3a3.2,3.2,0,0,0-.84-2.37,3.17,3.17,0,0,0-2.35-.84,3.1,3.1,0,0,0-2.32.84,3.2,3.2,0,0,0-.83,2.37v3a3.27,3.27,0,0,0,.83,2.4A3.1,3.1,0,0,0,1172.36,363.21Z" transform="translate(-90.38 -169.94)"/><path class="ba6a2d8b-abda-4ba6-933d-5e8d069b13ed" d="M1195.19,367.59V349.34h5v18.25Zm10.94,0V356.53a2.68,2.68,0,0,0-.8-2.08,3.19,3.19,0,0,0-2.25-.73,2.94,2.94,0,0,0-2.14.74,2.8,2.8,0,0,0-.76,2.1l-.38-4a7.2,7.2,0,0,1,2-2.55,5,5,0,0,1,3.06-.89,5.71,5.71,0,0,1,4.63,1.94,8.27,8.27,0,0,1,1.64,5.49v11.08Z" transform="translate(-90.38 -169.94)"/></svg>